<svg width="183" height="40" viewBox="0 0 183 40" fill="none" xmlns="http://www.w3.org/2000/svg">
<g clip-path="url(#clip0_6416_30322)">
<path d="M43.3827 36.0761L42.6977 38.131H36.0762V2.2832H43.8394V15.5264C45.4377 14.1564 47.4927 13.243 50.0043 13.243C56.8542 13.243 62.1058 18.723 62.1058 26.0295C62.1058 33.3361 56.8542 38.816 50.0043 38.816C47.2643 38.816 44.981 37.9027 43.3827 36.0761ZM48.8627 31.5095C52.0593 31.5095 53.8859 29.4545 53.8859 26.0295C53.8859 22.6046 52.0593 20.5496 48.8627 20.5496C45.666 20.5496 43.8394 22.6046 43.8394 26.0295C43.8394 29.4545 45.666 31.5095 48.8627 31.5095Z" fill="black"/>
<path d="M70.3264 2.51172C72.838 2.51172 74.893 4.33836 74.893 6.84999C74.893 9.36162 73.0663 11.4166 70.3264 11.4166C67.5864 11.4166 65.7598 9.58995 65.7598 6.84999C65.7598 4.11003 67.5864 2.51172 70.3264 2.51172ZM66.2164 13.9282H73.9796V38.1312H66.2164V13.9282Z" fill="black"/>
<path d="M79.6971 30.1398V7.53516H87.4603V13.9284H94.7669V20.7783H87.4603V28.3132C87.4603 30.5965 88.8303 31.5098 90.8853 31.5098C91.7986 31.5098 92.7119 31.2815 93.3969 30.8248L95.2235 37.2181C93.1686 38.1314 91.1136 38.8164 88.8303 38.8164C83.122 38.8164 79.4688 35.3914 79.4688 30.3682L79.6971 30.1398Z" fill="black"/>
<path d="M98.8672 13.9272H105.489L106.174 15.5255C108.229 13.9272 110.512 13.2422 112.795 13.2422C118.047 13.2422 122.614 16.6671 122.614 23.2887V37.9018H114.85V24.6587C114.85 21.9187 113.48 20.3204 111.197 20.3204C108.914 20.3204 107.087 21.9187 107.087 24.6587V37.9018H99.3238V13.9272H98.8672Z" fill="black"/>
<path d="M126.049 26.0287C126.049 18.7221 131.529 13.2422 139.292 13.2422C147.055 13.2422 152.535 18.7221 152.535 26.0287C152.535 33.3352 147.055 38.8152 139.292 38.8152C131.529 38.8152 126.049 33.3352 126.049 26.0287ZM139.064 31.5086C142.26 31.5086 144.087 29.4536 144.087 26.0287C144.087 22.6037 142.26 20.5488 139.064 20.5488C135.867 20.5488 134.04 22.6037 134.04 26.0287C134.04 29.4536 135.867 31.5086 139.064 31.5086Z" fill="black"/>
<path d="M163.947 36.0761L163.262 38.131H156.641V2.2832H164.404V15.5264C166.002 14.1564 168.057 13.243 170.569 13.243C177.419 13.243 182.67 18.723 182.67 26.0295C182.67 33.3361 177.419 38.816 170.569 38.816C167.829 38.816 165.545 37.9027 163.947 36.0761ZM169.427 31.5095C172.624 31.5095 174.45 29.4545 174.45 26.0295C174.45 22.6046 172.624 20.5496 169.427 20.5496C166.23 20.5496 164.404 22.6046 164.404 26.0295C164.404 29.4545 166.23 31.5095 169.427 31.5095Z" fill="black"/>
<path d="M23.9745 25.8011C25.8011 24.4311 27.1711 22.1478 27.1711 19.6362C27.1711 15.5263 23.7461 12.1013 19.6362 12.1013C17.1246 12.1013 14.8413 13.4713 13.4713 15.2979C13.0146 14.6129 12.3296 13.928 11.6447 13.4713C13.4713 12.1013 14.8413 9.81801 14.8413 7.30638C14.8413 3.19644 11.4163 -0.228516 7.30638 -0.228516C3.19644 -0.228516 -0.228516 3.19644 -0.228516 7.30638C-0.228516 9.81801 1.14147 12.1013 2.96811 13.4713C1.14147 14.8413 -0.228516 17.1246 -0.228516 19.6362C-0.228516 22.1478 1.14147 24.4311 2.96811 25.8011C1.14147 27.1711 -0.228516 29.4544 -0.228516 31.966C-0.228516 36.076 3.19644 39.5009 7.30638 39.5009C9.81801 39.5009 12.1013 38.1309 13.4713 36.3043C14.8413 38.3593 17.1246 39.5009 19.6362 39.5009C23.7461 39.5009 27.1711 36.076 27.1711 31.966C27.1711 29.4544 25.8011 27.1711 23.9745 25.8011ZM19.6362 14.8413C22.3762 14.8413 24.4311 16.8962 24.4311 19.6362C24.4311 22.1478 22.6045 24.2028 20.0929 24.4311H19.6362H19.1795C16.6679 24.2028 14.8413 22.1478 14.8413 19.6362C14.8413 16.8962 16.8962 14.8413 19.6362 14.8413ZM2.51145 7.53471C2.51145 4.79475 4.79475 2.51145 7.53471 2.51145C10.2747 2.51145 12.3296 4.56642 12.3296 7.30638C12.3296 9.81801 10.503 11.873 7.99137 12.1013H7.53471H7.07805C4.56642 11.873 2.73978 9.81801 2.73978 7.30638L2.51145 7.53471ZM2.51145 19.6362C2.51145 17.1246 4.33809 15.0696 6.84972 14.8413H7.30638H7.76304C10.2747 15.0696 12.1013 17.1246 12.1013 19.6362C12.1013 22.1478 10.2747 24.2028 7.76304 24.4311H7.30638H6.84972C4.33809 24.2028 2.51145 22.1478 2.51145 19.6362ZM7.53471 36.761C4.79475 36.761 2.73978 34.706 2.73978 31.966C2.73978 29.4544 4.56642 27.3994 7.07805 27.1711H7.53471H7.99137C10.503 27.3994 12.3296 29.4544 12.3296 31.966C12.3296 34.706 10.2747 36.761 7.53471 36.761ZM13.6996 27.8561C12.558 27.8561 11.6447 26.9428 11.6447 25.8011C11.6447 24.6595 12.558 23.7461 13.6996 23.7461C14.8413 23.7461 15.7546 24.6595 15.7546 25.8011C15.7546 26.9428 14.8413 27.8561 13.6996 27.8561ZM19.6362 36.761C16.8962 36.761 14.8413 34.706 14.8413 31.966C14.8413 29.4544 16.6679 27.3994 19.1795 27.1711H19.6362H20.0929C22.6045 27.3994 24.4311 29.4544 24.4311 31.966C24.4311 34.706 22.3762 36.761 19.6362 36.761Z" fill="black"/>
</g>
<defs>
<clipPath id="clip0_6416_30322">
<rect width="182.664" height="39.2728" fill="white"/>
</clipPath>
</defs>
</svg>
